<svg width="120" height="206" viewBox="0 0 120 206" fill="none" xmlns="http://www.w3.org/2000/svg">
<circle cx="86" cy="50" r="19.5" stroke="black"/>
<line x1="86.5" y1="70" x2="86.5" y2="150" stroke="black"/>
<line x1="65.6464" y1="101.931" x2="86.8596" y2="80.7175" stroke="black"/>
<line y1="-0.5" x2="30" y2="-0.5" transform="matrix(-0.707107 -0.707107 -0.707107 0.707107 107.284 102.284)" stroke="black"/>
<line x1="65.6464" y1="170.931" x2="86.8596" y2="149.718" stroke="black"/>
<line y1="-0.5" x2="30" y2="-0.5" transform="matrix(-0.707107 -0.707107 -0.707107 0.707107 107.213 171.284)" stroke="black"/>
<line x1="75.1085" y1="57.5119" x2="93.1085" y2="61.5119" stroke="black"/>
<line x1="81.4" y1="41.3" x2="75.4" y2="49.3" stroke="black"/>
<line x1="75.416" y1="40.7226" x2="81.416" y2="49.7227" stroke="black"/>
<line x1="95.4" y1="43.3" x2="89.4" y2="51.3" stroke="black"/>
<line x1="89.416" y1="42.7226" x2="95.416" y2="51.7227" stroke="black"/>
<line x1="86.5" y1="31" x2="86.5" y2="1" stroke="black" stroke-width="5"/>
<line x1="19.5" y1="200.987" x2="20.505" y2="0.989965" stroke="black" stroke-width="5"/>
<line x1="88" y1="3.5" x2="18" y2="3.5" stroke="black" stroke-width="5"/>
<line x1="120" y1="203.5" y2="203.5" stroke="black" stroke-width="5"/>
</svg>
